<svg xmlns="http://www.w3.org/2000/svg" width="268" height="306" viewBox="0 0 268 306" style="width:268px;height:306px;background:#fff"><g><rect width="68.75" height="56.858" x="154.688" y="143.77" fill="#FFF" rx="4.167" ry="4.167" style="stroke:#2196f3;stroke-width:2.0833333333333335"/><text x="175.521" y="177.171" fill="#2196F3" font-family="Verdana" font-size="12.5" lengthAdjust="spacing" textLength="27.083" style="white-space:pre">func</text><text x="20.146" y="19.879" fill="#2196F3" font-family="Verdana" font-size="12.5" lengthAdjust="spacing" textLength="70.833" style="white-space:pre;font-size:12.5px">input items</text><text x="14.25" y="297.004" fill="#2196F3" font-family="Verdana" font-size="12.5" lengthAdjust="spacing" textLength="80.208" style="white-space:pre;font-size:12.5px">output items</text><text x="172.396" y="19.879" fill="#2196F3" font-family="Verdana" font-size="12.5" lengthAdjust="spacing" textLength="89.583" style="white-space:pre">functionConfig</text><text x="168.229" y="298.004" fill="#2196F3" font-family="Verdana" font-size="12.5" lengthAdjust="spacing" textLength="41.667" style="white-space:pre">results</text><path id="input-to-FUNC" fill="none" d="M62.0625,44.1245 C70.7396,64.6453 84.5521,92.3537 102.6042,112.5203 C116,127.4787 133.9583,140.4995 150.0313,150.4683" style="stroke:#2196f3;stroke-width:3.125"/><polygon fill="#2196F3" points="154.521 153.197 148.7 144.75 150.078 150.478 144.35 151.857 154.521 153.197" style="stroke:#2196f3;stroke-width:3.125"/><text x="96.063" y="99.046" fill="orange" font-family="Verdana" font-size="12.5" lengthAdjust="spacing" textLength="52.083" style="white-space:pre;font-size:12.5px">Selected</text><path id="input-to-output" fill="none" d="M 56.979 265.768 C 56.7 213.203 56.107 101.69 55.809 45.442" style="stroke:#2196f3;stroke-width:3.125" transform="matrix(-1, 0, 0, -1, 112.787998, 311.210007)"/><polygon fill="#2196F3" points="56.875 274.096 61.229 264.404 56.979 268.662 52.897 264.23 56.875 274.096" style="stroke:#2196f3;stroke-width:3.125"/><text x="13.958" y="170.879" fill="orange" font-family="Verdana" font-size="12.5" lengthAdjust="spacing" textLength="21.875" style="white-space:pre;font-size:12.5px">Not</text><text x=".938" y="186.071" fill="orange" font-family="Verdana" font-size="12.5" lengthAdjust="spacing" textLength="52.083" style="white-space:pre;font-size:12.5px">Selected</text><path id="functionConfig-to-FUNC" fill="none" d="M212.1563,43.9162 C207.375,70.3224 200.1667,110.0724 195.0833,138.1558" style="stroke:#2196f3;stroke-width:3.125;stroke-dasharray:7,7"/><polygon fill="#2196F3" points="194.094 143.604 199.857 135.116 195.018 138.478 191.656 133.638 194.094 143.604" style="stroke:#2196f3;stroke-width:3.125"/><path id="FUNC-to-output" fill="none" d="M 155.604 201.302 C 131.094 221.804 99.196 248.499 73.869 269.692" style="stroke:#2196f3;stroke-width:3.125"/><polygon fill="#2196F3" points="69.216 273.585 80.435 270.388 73.765 269.776 74.374 263.068 69.216 273.585" style="stroke:#2196f3;stroke-width:3.125"/><path id="FUNC-to-results" fill="none" d="M189.0625,201.3016 C189.0625,218.5724 189.0625,240.8537 189.0625,259.0412" style="stroke:#2196f3;stroke-width:3.125;stroke-dasharray:7,7"/><polygon fill="#2196F3" points="189.063 264.541 193.229 255.166 189.063 259.333 184.896 255.166 189.063 264.541" style="stroke:#2196f3;stroke-width:3.125"/></g></svg>