<svg xmlns="http://www.w3.org/2000/svg" xmlns:xlink="http://www.w3.org/1999/xlink" width="252.083" height="267.708" contentScriptType="application/ecmascript" contentStyleType="text/css" preserveAspectRatio="none" style="width:252px;height:267px" version="1.1" viewBox="0 0 252 267" zoomAndPan="magnify"><g><rect width="68.75" height="56.858" x="86.458" y="106.27" fill="#FFF" rx="4.167" ry="4.167" style="stroke:#2196f3;stroke-width:2.0833333333333335"/><text x="107.292" y="139.671" fill="#2196F3" font-family="Verdana" font-size="12.5" lengthAdjust="spacing" textLength="27.083">func</text><text x="6.25" y="19.879" fill="#2196F3" font-family="Verdana" font-size="12.5" lengthAdjust="spacing" textLength="70.833">input items</text><text x="10.938" y="259.462" fill="#2196F3" font-family="Verdana" font-size="12.5" lengthAdjust="spacing" textLength="80.208">output items</text><text x="155.208" y="19.879" fill="#2196F3" font-family="Verdana" font-size="12.5" lengthAdjust="spacing" textLength="89.583">functionConfig</text><text x="169.792" y="259.462" fill="#2196F3" font-family="Verdana" font-size="12.5" lengthAdjust="spacing" textLength="41.667">results</text><path id="input-to-FUNC" fill="none" d="M60.4271,44.062 C72.0625,61.3641 87.0521,83.6453 99.1875,101.687" style="stroke:#2196f3;stroke-width:3.125"/><polygon fill="#2196F3" points="102.208 106.177 100.435 96.072 99.302 101.855 93.519 100.722 102.208 106.177" style="stroke:#2196f3;stroke-width:3.125"/><path id="functionConfig-to-FUNC" fill="none" d="M181.2396,44.062 C169.6042,61.3641 154.6146,83.6453 142.4792,101.687" style="stroke:#2196f3;stroke-width:3.125;stroke-dasharray:7,7"/><polygon fill="#2196F3" points="139.458 106.177 148.147 100.722 142.365 101.855 141.232 96.072 139.458 106.177" style="stroke:#2196f3;stroke-width:3.125"/><path id="FUNC-to-output" fill="none" d="M104.2917,163.8537 C94.0417,181.1558 80.8229,203.437 70.125,221.4787" style="stroke:#2196f3;stroke-width:3.125"/><polygon fill="#2196F3" points="67.458 225.968 75.817 220.02 70.109 221.485 68.644 215.778 67.458 225.968" style="stroke:#2196f3;stroke-width:3.125"/><path id="FUNC-to-results" fill="none" d="M137.375,163.8537 C147.625,181.1558 160.8438,203.437 171.5417,221.4787" style="stroke:#2196f3;stroke-width:3.125;stroke-dasharray:7,7"/><polygon fill="#2196F3" points="174.208 225.968 173.023 215.778 171.557 221.485 165.85 220.02 174.208 225.968" style="stroke:#2196f3;stroke-width:3.125"/></g></svg>