<svg xmlns="http://www.w3.org/2000/svg" xmlns:xlink="http://www.w3.org/1999/xlink" width="325" height="387.5" contentScriptType="application/ecmascript" contentStyleType="text/css" preserveAspectRatio="none" style="width:325px;height:387px" version="1.1" viewBox="0 0 325 387" zoomAndPan="magnify"><g><rect width="81.25" height="56.858" x="153.125" y="106.27" fill="#FFF" rx="4.167" ry="4.167" style="stroke:#2196f3;stroke-width:2.0833333333333335"/><text x="173.958" y="139.671" fill="#2196F3" font-family="Verdana" font-size="12.5" lengthAdjust="spacing" textLength="39.583">func A</text><rect width="81.25" height="56.858" x="35.417" y="226.062" fill="#FFF" rx="4.167" ry="4.167" style="stroke:#2196f3;stroke-width:2.0833333333333335"/><text x="56.25" y="259.462" fill="#2196F3" font-family="Verdana" font-size="12.5" lengthAdjust="spacing" textLength="39.583">func B</text><text x="79.167" y="19.879" fill="#2196F3" font-family="Verdana" font-size="12.5" lengthAdjust="spacing" textLength="70.833">input items</text><text x="14.063" y="379.254" fill="#2196F3" font-family="Verdana" font-size="12.5" lengthAdjust="spacing" textLength="80.208">output items</text><text x="228.125" y="19.879" fill="#2196F3" font-family="Verdana" font-size="12.5" lengthAdjust="spacing" textLength="89.583">functionConfig</text><text x="6.25" y="139.671" fill="#2196F3" font-family="Verdana" font-size="12.5" lengthAdjust="spacing" textLength="89.583">functionConfig</text><text x="172.917" y="379.254" fill="#2196F3" font-family="Verdana" font-size="12.5" lengthAdjust="spacing" textLength="41.667">results</text><path id="input-to-FUNCA" fill="none" d="M133.3438,44.062 C144.9792,61.3641 159.9688,83.6453 172.1042,101.687" style="stroke:#2196f3;stroke-width:3.125"/><polygon fill="#2196F3" points="175.125 106.177 173.351 96.072 172.219 101.855 166.436 100.722 175.125 106.177" style="stroke:#2196f3;stroke-width:3.125"/><path id="fc1-to-FUNCA" fill="none" d="M254.1563,44.062 C242.5208,61.3641 227.5313,83.6453 215.3958,101.687" style="stroke:#2196f3;stroke-width:3.125;stroke-dasharray:7,7"/><polygon fill="#2196F3" points="212.375 106.177 221.064 100.722 215.281 101.855 214.149 96.072 212.375 106.177" style="stroke:#2196f3;stroke-width:3.125"/><path id="FUNCA-to-results" fill="none" d="M193.75,163.6662 C193.75,207.6141 193.75,293.1349 193.75,340.2808" style="stroke:#2196f3;stroke-width:3.125;stroke-dasharray:7,7"/><polygon fill="#2196F3" points="193.75 345.562 197.917 336.187 193.75 340.354 189.583 336.187 193.75 345.562" style="stroke:#2196f3;stroke-width:3.125"/><path id="fc2-to-FUNCB" fill="none" d="M56.9688,163.8537 C60.5729,180.8537 65.2083,202.687 69.0104,220.562" style="stroke:#2196f3;stroke-width:3.125;stroke-dasharray:7,7"/><polygon fill="#2196F3" points="70.156 225.968 72.28 215.931 69.072 220.874 64.129 217.666 70.156 225.968" style="stroke:#2196f3;stroke-width:3.125"/><path id="FUNCA-to-FUNCB" fill="none" d="M165.8542,163.8537 C148.4063,181.3016 125.8958,203.812 107.7708,221.937" style="stroke:#2196f3;stroke-width:3.125"/><polygon fill="#2196F3" points="103.74 225.968 113.315 222.285 107.422 222.285 107.422 216.393 103.74 225.968" style="stroke:#2196f3;stroke-width:3.125"/><path id="FUNCB-to-output" fill="none" d="M70.8542,283.6453 C67.6979,300.6453 63.6458,322.4787 60.3229,340.3537" style="stroke:#2196f3;stroke-width:3.125"/><polygon fill="#2196F3" points="59.313 345.76 65.119 337.302 60.263 340.639 56.926 335.782 59.313 345.76" style="stroke:#2196f3;stroke-width:3.125"/><path id="FUNCB-to-results" fill="none" d="M103.9375,283.6453 C121.3854,301.0933 143.8958,323.6037 162.0208,341.7287" style="stroke:#2196f3;stroke-width:3.125;stroke-dasharray:7,7"/><polygon fill="#2196F3" points="166.052 345.76 162.369 336.185 162.369 342.077 156.477 342.077 166.052 345.76" style="stroke:#2196f3;stroke-width:3.125"/></g></svg>