<svg xmlns="http://www.w3.org/2000/svg" xmlns:xlink="http://www.w3.org/1999/xlink" width="525" height="112.5" contentScriptType="application/ecmascript" contentStyleType="text/css" preserveAspectRatio="none" style="width:525px;height:112px" version="1.1" viewBox="0 0 525 112" zoomAndPan="magnify"><g><rect width="85.417" height="56.858" x="7.292" y="50" fill="#FFF" rx="4.167" ry="4.167" style="stroke:#2196f3;stroke-width:2.0833333333333335"/><text x="28.125" y="83.4" fill="#2196F3" font-family="Verdana" font-size="12.5" lengthAdjust="spacing" textLength="43.75">Update</text><rect width="87.5" height="56.858" x="155.208" y="7.292" fill="#FFF" rx="4.167" ry="4.167" style="stroke:#2196f3;stroke-width:2.0833333333333335"/><text x="176.042" y="40.692" fill="#2196F3" font-family="Verdana" font-size="12.5" lengthAdjust="spacing" textLength="45.833">Explore</text><rect width="65.625" height="56.858" x="305.208" y="7.292" fill="#FFF" rx="4.167" ry="4.167" style="stroke:#2196f3;stroke-width:2.0833333333333335"/><text x="326.042" y="40.692" fill="#2196F3" font-family="Verdana" font-size="12.5" lengthAdjust="spacing" textLength="23.958">Edit</text><rect width="85.417" height="56.858" x="433.333" y="50" fill="#FFF" rx="4.167" ry="4.167" style="stroke:#2196f3;stroke-width:2.0833333333333335"/><text x="454.167" y="83.4" fill="#2196F3" font-family="Verdana" font-size="12.5" lengthAdjust="spacing" textLength="43.75">Render</text><path id="Update-to-Explore" fill="none" d="M92.7396,66.5208 C110.5625,61.3333 131.4896,55.25 149.9583,49.8854" style="stroke:#2196f3;stroke-width:3.125"/><polygon fill="#2196F3" points="155.094 48.385 144.927 47.01 150.094 49.844 147.26 55.01 155.094 48.385" style="stroke:#2196f3;stroke-width:3.125"/><path id="Explore-to-Edit" fill="none" d="M242.9688,35.9375 C261.1667,35.9375 282.1771,35.9375 299.7083,35.9375" style="stroke:#2196f3;stroke-width:3.125"/><polygon fill="#2196F3" points="305.042 35.938 295.667 31.771 299.833 35.938 295.667 40.104 305.042 35.938" style="stroke:#2196f3;stroke-width:3.125"/><path id="Edit-to-Render" fill="none" d="M370.9375,45.9479 C387.8646,51.2708 409,57.9063 427.7917,63.8125" style="stroke:#2196f3;stroke-width:3.125"/><polygon fill="#2196F3" points="433.031 65.458 425.337 58.672 428.063 63.896 422.838 66.622 433.031 65.458" style="stroke:#2196f3;stroke-width:3.125"/><path id="Render-to-Update" fill="none" d="M432.9479,80.7083 C413.9688,81.5417 391.2813,82.4063 370.8333,82.8125 C275.0208,84.7292 251.0208,84.7292 155.2083,82.8125 C136.6771,82.4375 116.3021,81.6979 98.5313,80.9479" style="stroke:#2196f3;stroke-width:3.125"/><polygon fill="#2196F3" points="93.094 80.708 102.282 85.273 98.297 80.931 102.639 76.947 93.094 80.708" style="stroke:#2196f3;stroke-width:3.125"/></g></svg>