<svg xmlns="http://www.w3.org/2000/svg" xmlns:xlink="http://www.w3.org/1999/xlink" width="371.875" height="69.792" contentScriptType="application/ecmascript" contentStyleType="text/css" preserveAspectRatio="none" style="width:371px;height:69px" version="1.1" viewBox="0 0 371 69" zoomAndPan="magnify"><g><rect width="82.292" height="56.858" x="7.292" y="7.292" fill="#FFF" rx="4.167" ry="4.167" style="stroke:#2196f3;stroke-width:2.0833333333333335"/><text x="28.125" y="40.692" fill="#2196F3" font-family="Verdana" font-size="12.5" lengthAdjust="spacing" textLength="40.625">Create</text><rect width="65.625" height="56.858" x="152.083" y="7.292" fill="#FFF" rx="4.167" ry="4.167" style="stroke:#2196f3;stroke-width:2.0833333333333335"/><text x="172.917" y="40.692" fill="#2196F3" font-family="Verdana" font-size="12.5" lengthAdjust="spacing" textLength="23.958">Edit</text><rect width="85.417" height="56.858" x="280.208" y="7.292" fill="#FFF" rx="4.167" ry="4.167" style="stroke:#2196f3;stroke-width:2.0833333333333335"/><text x="301.042" y="40.692" fill="#2196F3" font-family="Verdana" font-size="12.5" lengthAdjust="spacing" textLength="43.75">Render</text><path id="Create-to-Edit" fill="none" d="M89.7917,35.9375 C107.7292,35.9375 128.7292,35.9375 146.3229,35.9375" style="stroke:#2196f3;stroke-width:3.125"/><polygon fill="#2196F3" points="151.667 35.938 142.292 31.771 146.458 35.938 142.292 40.104 151.667 35.938" style="stroke:#2196f3;stroke-width:3.125"/><path id="Edit-to-Render" fill="none" d="M217.8125,47.3854 C234.7396,49.2917 255.875,49.7083 274.6667,48.6563" style="stroke:#2196f3;stroke-width:3.125"/><polygon fill="#2196F3" points="279.906 48.313 270.277 44.771 274.709 48.655 270.825 53.087 279.906 48.313" style="stroke:#2196f3;stroke-width:3.125"/><path id="Render-to-Edit" fill="none" d="M279.9063,22.8333 C261.7604,21.4271 240.7188,21.5729 223.1458,23.2396" style="stroke:#2196f3;stroke-width:3.125"/><polygon fill="#2196F3" points="217.813 23.813 227.576 26.965 222.992 23.262 226.694 18.678 217.813 23.813" style="stroke:#2196f3;stroke-width:3.125"/></g></svg>