<svg xmlns="http://www.w3.org/2000/svg" xmlns:xlink="http://www.w3.org/1999/xlink" width="695.833" height="69.792" contentScriptType="application/ecmascript" contentStyleType="text/css" preserveAspectRatio="none" style="width:695px;height:69px" version="1.1" viewBox="0 0 695 69" zoomAndPan="magnify"><g><rect width="85.417" height="56.858" x="7.292" y="7.292" fill="#FFF" rx="4.167" ry="4.167" style="stroke:#2196f3;stroke-width:2.0833333333333335"/><text x="28.125" y="40.692" fill="#2196F3" font-family="Verdana" font-size="12.5" lengthAdjust="spacing" textLength="43.75">Render</text><rect width="90.625" height="56.858" x="155.208" y="7.292" fill="#FFF" rx="4.167" ry="4.167" style="stroke:#2196f3;stroke-width:2.0833333333333335"/><text x="176.042" y="40.692" fill="#2196F3" font-family="Verdana" font-size="12.5" lengthAdjust="spacing" textLength="48.958">Initalize</text><rect width="89.583" height="56.858" x="308.333" y="7.292" fill="#FFF" rx="4.167" ry="4.167" style="stroke:#2196f3;stroke-width:2.0833333333333335"/><text x="329.167" y="40.692" fill="#2196F3" font-family="Verdana" font-size="12.5" lengthAdjust="spacing" textLength="47.917">Preview</text><rect width="75" height="56.858" x="460.417" y="7.292" fill="#FFF" rx="4.167" ry="4.167" style="stroke:#2196f3;stroke-width:2.0833333333333335"/><text x="481.25" y="40.692" fill="#2196F3" font-family="Verdana" font-size="12.5" lengthAdjust="spacing" textLength="33.333">Apply</text><rect width="91.667" height="56.858" x="597.917" y="7.292" fill="#FFF" rx="4.167" ry="4.167" style="stroke:#2196f3;stroke-width:2.0833333333333335"/><text x="618.75" y="40.692" fill="#2196F3" font-family="Verdana" font-size="12.5" lengthAdjust="spacing" textLength="50">Observe</text><path id="Render-to-Initalize" fill="none" d="M92.7813,35.9375 C110.4271,35.9375 131.1146,35.9375 149.5521,35.9375" style="stroke:#2196f3;stroke-width:3.125"/><polygon fill="#2196F3" points="155.198 35.938 145.823 31.771 149.99 35.938 145.823 40.104 155.198 35.938" style="stroke:#2196f3;stroke-width:3.125"/><path id="Initalize-to-Preview" fill="none" d="M245.9063,35.9375 C263.6667,35.9375 284.2083,35.9375 302.4688,35.9375" style="stroke:#2196f3;stroke-width:3.125"/><polygon fill="#2196F3" points="308.052 35.938 298.677 31.771 302.844 35.938 298.677 40.104 308.052 35.938" style="stroke:#2196f3;stroke-width:3.125"/><path id="Preview-to-Apply" fill="none" d="M398.1458,35.9375 C416.1042,35.9375 436.8021,35.9375 454.5833,35.9375" style="stroke:#2196f3;stroke-width:3.125"/><polygon fill="#2196F3" points="460 35.938 450.625 31.771 454.792 35.938 450.625 40.104 460 35.938" style="stroke:#2196f3;stroke-width:3.125"/><path id="Apply-to-Observe" fill="none" d="M535.6042,35.9375 C552.9375,35.9375 573.9063,35.9375 592.6771,35.9375" style="stroke:#2196f3;stroke-width:3.125"/><polygon fill="#2196F3" points="597.917 35.938 588.542 31.771 592.708 35.938 588.542 40.104 597.917 35.938" style="stroke:#2196f3;stroke-width:3.125"/></g></svg>