<svg xmlns="http://www.w3.org/2000/svg" xmlns:xlink="http://www.w3.org/1999/xlink" width="503.125" height="69.792" contentScriptType="application/ecmascript" contentStyleType="text/css" preserveAspectRatio="none" style="width:503px;height:69px" version="1.1" viewBox="0 0 503 69" zoomAndPan="magnify"><g><rect width="63.542" height="56.858" x="7.292" y="7.292" fill="#FFF" rx="4.167" ry="4.167" style="stroke:#2196f3;stroke-width:2.0833333333333335"/><text x="28.125" y="40.692" fill="#2196F3" font-family="Verdana" font-size="12.5" lengthAdjust="spacing" textLength="21.875">Get</text><rect width="87.5" height="56.858" x="133.333" y="7.292" fill="#FFF" rx="4.167" ry="4.167" style="stroke:#2196f3;stroke-width:2.0833333333333335"/><text x="154.167" y="40.692" fill="#2196F3" font-family="Verdana" font-size="12.5" lengthAdjust="spacing" textLength="45.833">Explore</text><rect width="65.625" height="56.858" x="283.333" y="7.292" fill="#FFF" rx="4.167" ry="4.167" style="stroke:#2196f3;stroke-width:2.0833333333333335"/><text x="304.167" y="40.692" fill="#2196F3" font-family="Verdana" font-size="12.5" lengthAdjust="spacing" textLength="23.958">Edit</text><rect width="85.417" height="56.858" x="411.458" y="7.292" fill="#FFF" rx="4.167" ry="4.167" style="stroke:#2196f3;stroke-width:2.0833333333333335"/><text x="432.292" y="40.692" fill="#2196F3" font-family="Verdana" font-size="12.5" lengthAdjust="spacing" textLength="43.75">Render</text><path id="Get-to-Explore" fill="none" d="M70.9479,35.9375 C87.7083,35.9375 108.8021,35.9375 127.6875,35.9375" style="stroke:#2196f3;stroke-width:3.125"/><polygon fill="#2196F3" points="132.948 35.938 123.573 31.771 127.74 35.938 123.573 40.104 132.948 35.938" style="stroke:#2196f3;stroke-width:3.125"/><path id="Explore-to-Edit" fill="none" d="M221.0938,35.9375 C239.2917,35.9375 260.3021,35.9375 277.8333,35.9375" style="stroke:#2196f3;stroke-width:3.125"/><polygon fill="#2196F3" points="283.167 35.938 273.792 31.771 277.958 35.938 273.792 40.104 283.167 35.938" style="stroke:#2196f3;stroke-width:3.125"/><path id="Edit-to-Render" fill="none" d="M349.0625,47.3854 C365.9896,49.2917 387.125,49.7083 405.9167,48.6563" style="stroke:#2196f3;stroke-width:3.125"/><polygon fill="#2196F3" points="411.156 48.313 401.527 44.771 405.959 48.655 402.075 53.087 411.156 48.313" style="stroke:#2196f3;stroke-width:3.125"/><path id="Render-to-Edit" fill="none" d="M411.1563,22.8333 C393.0104,21.4271 371.9688,21.5729 354.3958,23.2396" style="stroke:#2196f3;stroke-width:3.125"/><polygon fill="#2196F3" points="349.063 23.813 358.825 26.965 354.242 23.262 357.944 18.678 349.063 23.813" style="stroke:#2196f3;stroke-width:3.125"/></g></svg>